<svg xmlns="http://www.w3.org/2000/svg" width="1200" height="720" viewBox="0 0 1200 720">
  <defs>
    <linearGradient id="bg" x1="0" y1="0" x2="1" y2="1">
      <stop offset="0" stop-color="#eef6ff"/>
      <stop offset="0.55" stop-color="#dbeaff"/>
      <stop offset="1" stop-color="#c8ddff"/>
    </linearGradient>
    <linearGradient id="accent" x1="0" y1="0" x2="1" y2="0">
      <stop offset="0" stop-color="#2f73ff"/>
      <stop offset="0.6" stop-color="#49a7ff"/>
      <stop offset="1" stop-color="#7de6ff"/>
    </linearGradient>
    <filter id="soft" x="-20%" y="-20%" width="140%" height="140%">
      <feGaussianBlur stdDeviation="18"/>
    </filter>
  </defs>

  <rect width="1200" height="720" fill="url(#bg)"/>
  <circle cx="1050" cy="150" r="150" fill="rgba(73,167,255,0.32)" filter="url(#soft)"/>
  <circle cx="160" cy="560" r="180" fill="rgba(125,230,255,0.22)" filter="url(#soft)"/>

  <rect x="74" y="72" width="1052" height="576" rx="44" fill="rgba(255,255,255,0.72)" stroke="rgba(74,129,255,0.18)" stroke-width="6"/>
  <rect x="118" y="150" width="964" height="430" rx="36" fill="rgba(255,255,255,0.62)" stroke="rgba(74,129,255,0.12)" stroke-width="4"/>

  <path d="M170 410 C 280 340, 420 520, 560 420 C 700 320, 820 520, 1030 370" fill="none" stroke="url(#accent)" stroke-width="14" stroke-linecap="round"/>
  <path d="M170 460 C 280 410, 420 560, 560 480 C 700 400, 820 560, 1030 430" fill="none" stroke="rgba(47,115,255,0.22)" stroke-width="10" stroke-linecap="round" stroke-dasharray="10 14"/>

  <g fill="rgba(47,115,255,0.16)">
    <circle cx="250" cy="300" r="10"/>
    <circle cx="330" cy="330" r="8"/>
    <circle cx="410" cy="280" r="9"/>
    <circle cx="490" cy="350" r="7"/>
    <circle cx="570" cy="300" r="9"/>
    <circle cx="650" cy="340" r="8"/>
    <circle cx="730" cy="290" r="7"/>
    <circle cx="810" cy="330" r="9"/>
    <circle cx="890" cy="300" r="8"/>
  </g>

  <text x="150" y="135" font-family="Inter, Microsoft YaHei, PingFang SC, system-ui, sans-serif" font-size="36" font-weight="900" fill="rgba(19,53,111,0.92)">
    ÕĄ C Ę j­ + nÜ'
  </text>
  <text x="150" y="640" font-family="Inter, Microsoft YaHei, PingFang SC, system-ui, sans-serif" font-size="26" font-weight="700" fill="rgba(88,120,173,0.95)">
    3’Ņ9ä:
  </text>
</svg>
