<svg xmlns="http://www.w3.org/2000/svg" width="1200" height="720" viewBox="0 0 1200 720">
  <defs>
    <linearGradient id="bg" x1="0" y1="0" x2="1" y2="1">
      <stop offset="0" stop-color="#eaf4ff"/>
      <stop offset="0.55" stop-color="#dbeaff"/>
      <stop offset="1" stop-color="#c8ddff"/>
    </linearGradient>
    <linearGradient id="accent" x1="0" y1="0" x2="1" y2="0">
      <stop offset="0" stop-color="#2f73ff"/>
      <stop offset="0.6" stop-color="#49a7ff"/>
      <stop offset="1" stop-color="#7de6ff"/>
    </linearGradient>
    <filter id="soft" x="-20%" y="-20%" width="140%" height="140%">
      <feGaussianBlur stdDeviation="18"/>
    </filter>
  </defs>

  <rect width="1200" height="720" fill="url(#bg)"/>
  <circle cx="1020" cy="120" r="130" fill="rgba(73,167,255,0.35)" filter="url(#soft)"/>
  <circle cx="180" cy="620" r="170" fill="rgba(125,230,255,0.28)" filter="url(#soft)"/>

  <rect x="74" y="72" width="1052" height="576" rx="44" fill="rgba(255,255,255,0.72)" stroke="rgba(74,129,255,0.18)" stroke-width="6"/>
  <rect x="118" y="128" width="964" height="70" rx="28" fill="rgba(255,255,255,0.76)" stroke="rgba(74,129,255,0.12)" stroke-width="4"/>
  <rect x="118" y="224" width="964" height="360" rx="36" fill="rgba(255,255,255,0.62)" stroke="rgba(74,129,255,0.12)" stroke-width="4"/>

  <path d="M190 480 C 320 360, 420 520, 560 420 C 700 320, 820 520, 1010 360" fill="none" stroke="url(#accent)" stroke-width="14" stroke-linecap="round"/>
  <path d="M190 520 C 320 430, 420 560, 560 470 C 700 390, 820 560, 1010 430" fill="none" stroke="rgba(47,115,255,0.22)" stroke-width="10" stroke-linecap="round" stroke-dasharray="18 16"/>

  <text x="150" y="175" font-family="Inter, Microsoft YaHei, PingFang SC, system-ui, sans-serif" font-size="36" font-weight="900" fill="rgba(19,53,111,0.92)">
    åµ A · pØ‘‡Ų
  </text>
  <text x="150" y="280" font-family="Inter, Microsoft YaHei, PingFang SC, system-ui, sans-serif" font-size="26" font-weight="700" fill="rgba(88,120,173,0.95)">
    hłłŌļīĶ”:
  </text>
</svg>
