<svg xmlns="http://www.w3.org/2000/svg" width="1200" height="720" viewBox="0 0 1200 720">
  <defs>
    <linearGradient id="bg" x1="0" y1="0" x2="1" y2="1">
      <stop offset="0" stop-color="#eef6ff"/>
      <stop offset="0.55" stop-color="#dbeaff"/>
      <stop offset="1" stop-color="#c8ddff"/>
    </linearGradient>
    <linearGradient id="accent" x1="0" y1="0" x2="1" y2="0">
      <stop offset="0" stop-color="#2f73ff"/>
      <stop offset="0.6" stop-color="#49a7ff"/>
      <stop offset="1" stop-color="#7de6ff"/>
    </linearGradient>
    <filter id="soft" x="-20%" y="-20%" width="140%" height="140%">
      <feGaussianBlur stdDeviation="18"/>
    </filter>
  </defs>

  <rect width="1200" height="720" fill="url(#bg)"/>
  <circle cx="980" cy="610" r="160" fill="rgba(47,115,255,0.18)" filter="url(#soft)"/>
  <circle cx="210" cy="130" r="140" fill="rgba(125,230,255,0.26)" filter="url(#soft)"/>

  <rect x="74" y="72" width="1052" height="576" rx="44" fill="rgba(255,255,255,0.72)" stroke="rgba(74,129,255,0.18)" stroke-width="6"/>
  <rect x="118" y="128" width="964" height="456" rx="36" fill="rgba(255,255,255,0.62)" stroke="rgba(74,129,255,0.12)" stroke-width="4"/>

  <g fill="none" stroke="rgba(47,115,255,0.18)" stroke-width="8">
    <rect x="170" y="210" width="240" height="110" rx="26"/>
    <rect x="480" y="210" width="240" height="110" rx="26"/>
    <rect x="790" y="210" width="240" height="110" rx="26"/>
    <path d="M410 265 L480 265"/>
    <path d="M720 265 L790 265"/>
  </g>

  <path d="M200 520 C 340 390, 520 560, 680 420 C 820 300, 940 510, 1030 360" fill="none" stroke="url(#accent)" stroke-width="14" stroke-linecap="round"/>
  <text x="150" y="175" font-family="Inter, Microsoft YaHei, PingFang SC, system-ui, sans-serif" font-size="36" font-weight="900" fill="rgba(19,53,111,0.92)">
    ÕĄ B Ę ┬pž
  </text>
  <text x="150" y="620" font-family="Inter, Microsoft YaHei, PingFang SC, system-ui, sans-serif" font-size="26" font-weight="700" fill="rgba(88,120,173,0.95)">
    üę'6[y':
  </text>
</svg>
